<svg width="200" height="200" viewBox="0 0 200 200" fill="none" xmlns="http://www.w3.org/2000/svg">
<rect width="200" height="200" fill="url(#paint0_linear_12_6)"/>
<path d="M30.3438 172.688C31.9062 172.688 33.6354 172.083 35.5312 170.875L36.25 172.125C34.1042 173.521 32.0625 174.229 30.125 174.25C28.3125 174.25 26.75 173.688 25.4375 172.562C23.2917 170.688 22.2188 167.667 22.2188 163.5C22.2188 160.521 22.8229 158.073 24.0312 156.156C25.5104 153.823 27.6042 152.656 30.3125 152.656C30.7917 152.656 31.2708 152.698 31.75 152.781C34.1042 153.26 35.75 154.74 36.6875 157.219L35.0938 157.75C34.1146 155.417 32.5 154.229 30.25 154.188C29.0417 154.188 27.9792 154.521 27.0625 155.188C25.0625 156.667 24.0625 159.438 24.0625 163.5C24.0625 165.562 24.3542 167.323 24.9375 168.781C26 171.385 27.8021 172.688 30.3438 172.688ZM51.5 174V163.719H41.1562V174H39.5V152.906H41.1562V162.344H51.5V152.906H53.1875V174H51.5ZM57.7812 174H56L62.7188 152.906H65.0312L71.6875 174H69.8125L68.125 168.562H59.4688L57.7812 174ZM62.6875 158.219L59.9062 167.188H67.7188L64.9375 158.188C64.875 157.958 64.7604 157.542 64.5938 156.938C64.2188 155.667 63.9583 154.781 63.8125 154.281C63.6667 154.76 63.2917 156.073 62.6875 158.219ZM84.1562 174H74.5V152.906H76.1875V172.562H84.1562V174ZM96.6562 174H87V152.906H88.6875V172.562H96.6562V174ZM109.781 172.562V174H99.5312V152.906H109.5V154.344H101.188V162.25H108.594V163.688H101.188V172.562H109.781ZM127.969 174L126.469 174.219L115.625 155.969V174H114V152.906L115.562 152.688L126.344 170.625V152.906H127.969V174ZM146.469 172.469C144.177 173.656 142.052 174.26 140.094 174.281C138.198 174.281 136.583 173.75 135.25 172.688C132.917 170.833 131.75 167.771 131.75 163.5C131.75 160.5 132.385 158.031 133.656 156.094C135.177 153.802 137.302 152.656 140.031 152.656C140.365 152.656 140.708 152.677 141.062 152.719C143.562 153.073 145.365 154.573 146.469 157.219L144.875 157.781C143.812 155.427 142.177 154.229 139.969 154.188C138.552 154.188 137.312 154.667 136.25 155.625C134.458 157.271 133.562 159.896 133.562 163.5C133.562 165.75 133.927 167.635 134.656 169.156C135.823 171.552 137.688 172.75 140.25 172.75C141.583 172.75 143.094 172.354 144.781 171.562V165.469H139.781V164.031H146.469V172.469ZM160.938 172.562V174H150.688V152.906H160.656V154.344H152.344V162.25H159.75V163.688H152.344V172.562H160.938ZM175.375 168.594C175.375 169.969 175.01 171.135 174.281 172.094C173.177 173.531 171.552 174.25 169.406 174.25C167.49 174.25 165.677 173.646 163.969 172.438L164.75 171.156C166.375 172.219 167.958 172.76 169.5 172.781C170.229 172.781 170.896 172.646 171.5 172.375C172.917 171.688 173.625 170.448 173.625 168.656C173.625 167.99 173.49 167.385 173.219 166.844C172.76 165.948 171.729 165.104 170.125 164.312C168.417 163.458 167.417 162.938 167.125 162.75C165.333 161.604 164.438 160.042 164.438 158.062C164.438 156.646 164.917 155.438 165.875 154.438C167.042 153.25 168.542 152.656 170.375 152.656C170.812 152.656 171.24 152.698 171.656 152.781C173.49 153.135 174.74 154.104 175.406 155.688L174.031 156.406C173.969 156.281 173.896 156.146 173.812 156C173 154.75 171.812 154.125 170.25 154.125C169.521 154.125 168.833 154.292 168.188 154.625C166.833 155.333 166.156 156.469 166.156 158.031C166.156 158.615 166.271 159.146 166.5 159.625C166.917 160.479 167.917 161.292 169.5 162.062C171.271 162.958 172.302 163.5 172.594 163.688C174.448 164.875 175.375 166.51 175.375 168.594Z" fill="black"/>
<path d="M118.431 43.2094C113.055 48.685 105.611 49.4839 88.9306 45.9283C79.0178 43.8152 71.2247 46.7593 66.6082 49.8541C65.0102 50.9254 63.7929 52.0147 63 52.9186L87.284 143H91.7183L76.524 86.6367C81.1404 83.5418 88.9336 80.5978 98.8464 82.7108C115.526 86.2664 122.97 85.4675 128.347 79.992C132.649 75.6115 134.466 73.7796 135.675 72.7825L125.76 36C124.55 36.997 122.733 38.829 118.431 43.2094Z" fill="url(#paint1_linear_12_6)"/>
<path fill-rule="evenodd" clip-rule="evenodd" d="M63.3258 52.4721L63 53.1238L86.9418 143.124H91.6301L79.1669 96.7101L66.6241 50L65.5 50.6238L65.4166 50.6655C64.8095 50.969 64.2553 51.3685 63.7754 51.8484C63.593 52.0308 63.4412 52.2414 63.3258 52.4721Z" fill="url(#paint2_linear_12_6)"/>
<defs>
<linearGradient id="paint0_linear_12_6" x1="100" y1="0" x2="100" y2="200" gradientUnits="userSpaceOnUse">
<stop stop-color="#E498A4"/>
<stop offset="1" stop-color="#B3ACC9"/>
</linearGradient>
<linearGradient id="paint1_linear_12_6" x1="88" y1="33" x2="162" y2="113" gradientUnits="userSpaceOnUse">
<stop stop-color="#FF3E30"/>
<stop offset="0.475" stop-color="#D6261A"/>
</linearGradient>
<linearGradient id="paint2_linear_12_6" x1="38" y1="27.5" x2="90" y2="119.5" gradientUnits="userSpaceOnUse">
<stop stop-color="#FFEA75"/>
<stop offset="1" stop-color="#F3D426"/>
</linearGradient>
</defs>
</svg>
