<svg width="200" height="200" viewBox="0 0 200 200" fill="none" xmlns="http://www.w3.org/2000/svg">
<rect width="200" height="200" fill="#727272"/>
<path d="M29.3438 172.688C30.9062 172.688 32.6354 172.083 34.5312 170.875L35.25 172.125C33.1042 173.521 31.0625 174.229 29.125 174.25C27.3125 174.25 25.75 173.688 24.4375 172.562C22.2917 170.688 21.2188 167.667 21.2188 163.5C21.2188 160.521 21.8229 158.073 23.0312 156.156C24.5104 153.823 26.6042 152.656 29.3125 152.656C29.7917 152.656 30.2708 152.698 30.75 152.781C33.1042 153.26 34.75 154.74 35.6875 157.219L34.0938 157.75C33.1146 155.417 31.5 154.229 29.25 154.188C28.0417 154.188 26.9792 154.521 26.0625 155.188C24.0625 156.667 23.0625 159.438 23.0625 163.5C23.0625 165.562 23.3542 167.323 23.9375 168.781C25 171.385 26.8021 172.688 29.3438 172.688ZM50.5 174V163.719H40.1562V174H38.5V152.906H40.1562V162.344H50.5V152.906H52.1875V174H50.5ZM56.7812 174H55L61.7188 152.906H64.0312L70.6875 174H68.8125L67.125 168.562H58.4688L56.7812 174ZM61.6875 158.219L58.9062 167.188H66.7188L63.9375 158.188C63.875 157.958 63.7604 157.542 63.5938 156.938C63.2188 155.667 62.9583 154.781 62.8125 154.281C62.6667 154.76 62.2917 156.073 61.6875 158.219ZM83.1562 174H73.5V152.906H75.1875V172.562H83.1562V174ZM95.6562 174H86V152.906H87.6875V172.562H95.6562V174ZM108.781 172.562V174H98.5312V152.906H108.5V154.344H100.188V162.25H107.594V163.688H100.188V172.562H108.781ZM126.969 174L125.469 174.219L114.625 155.969V174H113V152.906L114.562 152.688L125.344 170.625V152.906H126.969V174ZM145.469 172.469C143.177 173.656 141.052 174.26 139.094 174.281C137.198 174.281 135.583 173.75 134.25 172.688C131.917 170.833 130.75 167.771 130.75 163.5C130.75 160.5 131.385 158.031 132.656 156.094C134.177 153.802 136.302 152.656 139.031 152.656C139.365 152.656 139.708 152.677 140.062 152.719C142.562 153.073 144.365 154.573 145.469 157.219L143.875 157.781C142.812 155.427 141.177 154.229 138.969 154.188C137.552 154.188 136.312 154.667 135.25 155.625C133.458 157.271 132.562 159.896 132.562 163.5C132.562 165.75 132.927 167.635 133.656 169.156C134.823 171.552 136.688 172.75 139.25 172.75C140.583 172.75 142.094 172.354 143.781 171.562V165.469H138.781V164.031H145.469V172.469ZM159.938 172.562V174H149.688V152.906H159.656V154.344H151.344V162.25H158.75V163.688H151.344V172.562H159.938ZM174.375 168.594C174.375 169.969 174.01 171.135 173.281 172.094C172.177 173.531 170.552 174.25 168.406 174.25C166.49 174.25 164.677 173.646 162.969 172.438L163.75 171.156C165.375 172.219 166.958 172.76 168.5 172.781C169.229 172.781 169.896 172.646 170.5 172.375C171.917 171.688 172.625 170.448 172.625 168.656C172.625 167.99 172.49 167.385 172.219 166.844C171.76 165.948 170.729 165.104 169.125 164.312C167.417 163.458 166.417 162.938 166.125 162.75C164.333 161.604 163.438 160.042 163.438 158.062C163.438 156.646 163.917 155.438 164.875 154.438C166.042 153.25 167.542 152.656 169.375 152.656C169.812 152.656 170.24 152.698 170.656 152.781C172.49 153.135 173.74 154.104 174.406 155.688L173.031 156.406C172.969 156.281 172.896 156.146 172.812 156C172 154.75 170.812 154.125 169.25 154.125C168.521 154.125 167.833 154.292 167.188 154.625C165.833 155.333 165.156 156.469 165.156 158.031C165.156 158.615 165.271 159.146 165.5 159.625C165.917 160.479 166.917 161.292 168.5 162.062C170.271 162.958 171.302 163.5 171.594 163.688C173.448 164.875 174.375 166.51 174.375 168.594Z" fill="#E0E0E0"/>
<path fill-rule="evenodd" clip-rule="evenodd" d="M119.431 43.2094C114.054 48.685 106.611 49.4839 89.9306 45.9283C80.0178 43.8152 72.2246 46.7593 67.6082 49.8541C66.0102 50.9254 64.7929 52.0147 64 52.9186L73.9158 89.7011L88.284 143H92.7183L77.5239 86.6367C82.1404 83.5418 89.9336 80.5978 99.8464 82.7108C116.526 86.2664 123.97 85.4675 129.347 79.992C133.649 75.6115 135.466 73.7796 136.675 72.7825L126.76 36C125.55 36.997 123.733 38.829 119.431 43.2094Z" fill="#D9D9D9"/>
</svg>
