<svg width="200" height="200" viewBox="0 0 200 200" fill="none" xmlns="http://www.w3.org/2000/svg">
<rect width="200" height="200" fill="url(#paint0_linear_21_40)"/>
<path d="M76.5625 171V160.719H66.2188V171H64.5625V149.906H66.2188V159.344H76.5625V149.906H78.25V171H76.5625ZM98 160.5C98 163.208 97.4583 165.521 96.375 167.438C94.9167 169.979 92.7917 171.25 90 171.25C88.1458 171.25 86.5729 170.719 85.2812 169.656C83.1146 167.844 82.0312 164.792 82.0312 160.5C82.0312 157.708 82.6146 155.333 83.7812 153.375C85.2604 150.896 87.3646 149.656 90.0938 149.656C92.0104 149.656 93.625 150.25 94.9375 151.438C96.9792 153.333 98 156.354 98 160.5ZM83.8438 160.5C83.8438 162.521 84.1354 164.271 84.7188 165.75C85.7604 168.396 87.5208 169.719 90 169.719C91.4375 169.719 92.6667 169.229 93.6875 168.25C95.3542 166.604 96.1875 164.021 96.1875 160.5C96.1875 158.438 95.8854 156.646 95.2812 155.125C94.2396 152.5 92.5 151.188 90.0625 151.188C88.5833 151.188 87.3125 151.729 86.25 152.812C84.6458 154.521 83.8438 157.083 83.8438 160.5ZM101.531 171H99.9688L102.938 149.906H104.75L109.125 164.188C109.229 164.562 109.396 165.177 109.625 166.031C109.854 166.885 110.021 167.5 110.125 167.875C110.208 167.604 110.333 167.156 110.5 166.531C110.792 165.448 111.021 164.656 111.188 164.156L115.844 149.906H117.625L120.188 171H118.438L116.906 157.938C116.865 157.396 116.781 156.552 116.656 155.406C116.531 154.26 116.438 153.417 116.375 152.875C116.208 153.417 115.948 154.271 115.594 155.438C115.26 156.583 115 157.427 114.812 157.969L110.719 170.188L109.25 170.25L105.438 157.906C105.229 157.281 104.938 156.281 104.562 154.906C104.292 153.927 104.083 153.208 103.938 152.75C103.854 153.438 103.708 154.542 103.5 156.062C103.396 156.917 103.312 157.552 103.25 157.969L101.531 171ZM133.75 169.562V171H123.5V149.906H133.469V151.344H125.156V159.25H132.562V160.688H125.156V169.562H133.75Z" fill="black"/>
<path fill-rule="evenodd" clip-rule="evenodd" d="M147.245 88.5C150.289 88.5 151.398 84.4906 148.787 82.9264L102.042 54.9236C101.093 54.355 99.9075 54.355 98.9583 54.9235L52.2132 82.9264C49.6021 84.4906 50.7111 88.5 53.7549 88.5H59.3161C60.973 88.5 62.3161 89.8431 62.3161 91.5V128C62.3161 129.657 63.6593 131 65.3161 131H91.0645C92.7214 131 94.0645 129.657 94.0645 128V107C94.0645 105.343 95.4076 104 97.0645 104H104.077C105.734 104 107.077 105.343 107.077 107V128C107.077 129.657 108.421 131 110.077 131H135.826C137.483 131 138.826 129.657 138.826 128V91.5C138.826 89.8431 140.169 88.5 141.826 88.5H147.245Z" fill="black"/>
<defs>
<linearGradient id="paint0_linear_21_40" x1="100" y1="0" x2="100" y2="200" gradientUnits="userSpaceOnUse">
<stop stop-color="#E498A4"/>
<stop offset="1" stop-color="#B3ACC9"/>
</linearGradient>
</defs>
</svg>
