<svg width="689" height="689" viewBox="0 0 689 689" fill="none" xmlns="http://www.w3.org/2000/svg">
<rect width="689" height="689" fill="#C4C4C4" fill-opacity="0.72"/>
<path d="M54.2275 212.862C82.7145 212.862 113.791 212.412 140.333 224.024C148.12 227.431 163.547 234.484 155.924 245.461C147.676 257.339 136.618 267.722 123.147 273.454C109.806 279.131 93.2789 287.58 81.7776 296.398C73.3173 302.884 95.5489 313.542 100.646 317.481C128.543 339.038 156.069 349.992 191.358 349.992" stroke="white" stroke-width="3" stroke-linecap="round"/>
<path d="M170.629 362.749C170.629 385.962 170.435 405.302 159.821 426.53C147.129 451.915 117.686 442.475 94.4453 442.475C83.9326 442.475 72.7844 443.991 89.3074 450.448C118.218 461.746 152.255 463.793 182.676 467.634C210.418 471.136 239.898 471.177 267.895 471.177C276.051 471.177 285.435 471.952 285.435 461.61" stroke="white" stroke-width="3" stroke-linecap="round"/>
<path d="M438.511 270.265C437.263 293.977 434.311 317.739 433.727 341.665C433.32 358.348 427.559 379.114 435.322 394.639" stroke="white" stroke-width="3" stroke-linecap="round"/>
<path d="M436.916 397.828C436.48 401.319 422.313 404.605 419.376 406.598C408.203 414.181 397.287 422.676 386.6 430.959C369.863 443.93 369.041 465.459 391.383 472.772C422.298 482.889 450.444 459.245 466.858 435.743C471.638 428.899 479.274 416.29 478.286 407.396C477.41 399.514 469.708 395.713 464.023 391.45" stroke="white" stroke-width="3" stroke-linecap="round"/>
<path d="M518.238 281.427C518.238 273.461 540.518 276.643 545.345 276.643C557.652 276.643 574.771 273.576 576.881 289.754C579.377 308.891 546.012 331.434 532.234 339.185C531.053 339.849 494.794 355.378 508.316 359.648C520.651 363.543 528.892 352.125 537.5 344.5C543.5 339.185 546.359 340.782 555.5 338C567.944 334.213 587.629 341.145 600.5 342.5C608.369 343.328 609.126 350.304 609.126 356.37" stroke="white" stroke-width="3" stroke-linecap="round"/>
<path d="M500.698 397.828C521.256 397.828 541.579 395.639 562.088 394.728C574.747 394.165 587.415 393.045 600.091 393.045C605.991 393.045 611.512 393.313 617.099 391.45" stroke="white" stroke-width="3" stroke-linecap="round"/>
<path d="M578.033 445.664C588.107 445.664 586.764 442.472 587.873 434.946C604.608 436.545 621.395 441.366 625.78 454.523C633.557 477.853 597.588 491.099 582.374 497.93C566.084 505.243 540.457 512.484 524.97 499.879C507.55 485.7 532.74 472.548 543.042 466.305C550.991 461.487 559.282 456.834 566.783 451.334C569.379 449.43 574.786 445.664 578.033 445.664Z" fill="#C4C4C4" fill-opacity="0.72"/>
<path d="M604.343 393.045C595.628 402.728 591.984 418.322 588.752 430.605C585.948 441.26 589.864 445.664 578.033 445.664C574.786 445.664 569.379 449.43 566.783 451.334C559.282 456.834 550.991 461.487 543.042 466.305C532.74 472.548 507.55 485.7 524.97 499.879C540.457 512.484 566.084 505.243 582.374 497.93C597.588 491.099 633.557 477.853 625.78 454.523C618.257 431.953 574.241 433.913 556.595 434.591C541.765 435.162 515.516 441.164 507.076 455.232" stroke="white" stroke-width="3" stroke-linecap="round"/>
<path d="M385.979 286.231C385.482 281.757 373.101 279.709 369.954 278.64C357.603 274.445 345.321 273.579 332.422 273.579C323.809 273.579 316.626 274.171 310.727 281.545C305.577 287.983 304.032 293.159 305.058 301.365C305.93 308.342 311.043 314.879 317.194 318.233C326.548 323.336 335.387 328.926 345.026 333.462C351.664 336.585 360.701 335.148 367.798 335.148C371.942 335.148 376.034 335.416 380.075 334.492C381.765 334.106 386.865 333.547 387.665 335.148" stroke="white" stroke-width="3" stroke-linecap="round"/>
<path d="M141.317 555.929C141.317 560.619 139.942 563.227 137.893 567.439C135.864 571.608 131.9 579.724 131.9 584.608C131.9 597.337 149.35 597.526 157.583 603.015" stroke="white" stroke-width="3" stroke-linecap="round"/>
<path d="M202.101 585.036C192.975 580.742 186.552 605.005 196.964 605.583C205.033 606.031 211.518 600.973 211.518 592.741" stroke="white" stroke-width="3" stroke-linecap="round"/>
<path d="M244.05 592.741C244.05 598.566 239.484 603.622 242.338 609.864C244.03 613.566 246.803 614.552 250.899 614.097C255.295 613.608 257.643 606.64 259.46 603.395C260.729 601.13 261.734 598.832 263.217 596.689C263.794 595.855 264.143 593.071 264.597 593.978C265.737 596.259 262.175 604.465 261.553 606.867C261.172 608.337 258.519 616.603 261.362 616.712C267.461 616.947 271.927 609.141 274.87 604.727" stroke="white" stroke-width="3" stroke-linecap="round"/>
<path d="M307.402 606.011C307.402 605.136 307.405 604.261 307.411 603.387C307.746 604.057 308.001 604.759 308.163 605.488C309.071 609.573 307.402 611.822 307.402 606.011Z" fill="#C4C4C4" fill-opacity="0.72"/>
<path d="M308.258 563.634C308.258 577.793 307.402 591.884 307.402 606.011C307.402 611.822 309.071 609.573 308.163 605.488C306.829 599.485 299.144 595.31 293.514 595.31C285.224 595.31 275.09 608.7 283.098 615.476C287.575 619.264 296.343 618.031 301.314 615.856C306.672 613.512 309.238 609.615 311.683 604.727" stroke="white" stroke-width="3" stroke-linecap="round"/>
<path d="M327.092 590.173C328.616 592.268 328.624 597.025 329.185 599.59C330.202 604.239 331.065 607.694 333.275 611.956C337.674 620.439 344.932 623.396 353.632 618.425" stroke="white" stroke-width="3" stroke-linecap="round"/>
<path d="M329.661 576.475C329.759 577.264 329.939 577.042 330.517 577.331" stroke="white" stroke-width="3" stroke-linecap="round"/>
<path d="M388.732 593.598C385.944 599.484 385.308 605.958 385.308 612.384C385.308 613.735 386.164 623.496 386.164 620.137" stroke="white" stroke-width="3" stroke-linecap="round"/>
<path d="M383.596 593.598C389.605 594.144 395.805 599.417 401.479 601.493C410.301 604.72 421.987 606.642 429.35 612.717C436.001 618.206 436.079 622.342 429.825 627.652C427.521 629.608 424.999 632.019 422.121 632.979" stroke="white" stroke-width="3" stroke-linecap="round"/>
<path d="M473.487 596.166C472.95 591.869 464.06 601.284 463.404 602.159C459.416 607.476 455.305 616.002 460.836 621.659C467.694 628.673 479.573 627.804 487.851 624.417C489.551 623.722 491.928 620.647 491.37 624.132C490.515 629.478 487.66 635.434 484.997 640.113C479.563 649.658 473.93 658.883 461.977 658.662C457.109 658.572 450.571 655.86 450.372 650.291C450.128 643.453 458.918 639.396 464.26 637.259C469.418 635.196 476.007 636.581 480.336 639.827" stroke="white" stroke-width="3" stroke-linecap="round"/>
<path d="M517.149 633.835H519.717" stroke="white" stroke-width="3" stroke-linecap="round"/>
<path d="M552.249 630.41H553.105" stroke="white" stroke-width="3" stroke-linecap="round"/>
<path d="M577.932 632.122H579.644" stroke="white" stroke-width="3" stroke-linecap="round"/>
</svg>
