<svg width="98" height="169" viewBox="0 0 98 169" fill="none" xmlns="http://www.w3.org/2000/svg">
<path fill-rule="evenodd" clip-rule="evenodd" d="M84 55V31V28H83.81C82.019 13.9467 67.789 3 50.5 3C33.211 3 18.981 13.9467 17.19 28H17V31V55C9.26801 55 3 61.268 3 69V119C3 126.732 9.26801 133 17 133H84C91.732 133 98 126.732 98 119V69C98 61.268 91.732 55 84 55ZM74 55V33.7521V31.4215H73.8667C72.6104 20.5041 62.6281 12 50.5 12C38.3719 12 28.3896 20.5041 27.1333 31.4215H27V33.7521V55H74Z" fill="#212121"/>
<path fill-rule="evenodd" clip-rule="evenodd" d="M52.5431 97.7183C55.6923 96.8288 58 93.9339 58 90.5C58 86.3579 54.6421 83 50.5 83C46.3579 83 43 86.3579 43 90.5C43 93.9339 45.3077 96.8288 48.4569 97.7183L44.0048 108H56.9952L52.5431 97.7183Z" fill="black"/>
<path d="M8.23438 161H6.45312L13.1719 139.906H15.4844L22.1406 161H20.2656L18.5781 155.562H9.92188L8.23438 161ZM13.1406 145.219L10.3594 154.188H18.1719L15.3906 145.188C15.3281 144.958 15.2135 144.542 15.0469 143.938C14.6719 142.667 14.4115 141.781 14.2656 141.281C14.1198 141.76 13.7448 143.073 13.1406 145.219ZM24.9844 139.906C25.4635 139.906 26.1615 139.896 27.0781 139.875C28.4115 139.833 29.3906 139.812 30.0156 139.812C31.9948 139.812 33.6719 140.281 35.0469 141.219C37.5469 142.948 38.7969 146.042 38.7969 150.5C38.7969 152.896 38.349 154.969 37.4531 156.719C35.9531 159.656 33.4531 161.115 29.9531 161.094C28.5573 161.094 26.901 161.062 24.9844 161V139.906ZM29.9531 159.594C31.4531 159.594 32.7448 159.219 33.8281 158.469C35.9323 156.99 36.9844 154.333 36.9844 150.5C36.9844 148.896 36.7969 147.469 36.4219 146.219C35.401 142.948 33.2656 141.312 30.0156 141.312C28.6198 141.312 27.4948 141.323 26.6406 141.344V159.562C27.474 159.583 28.5781 159.594 29.9531 159.594ZM42.0156 161H40.4531L43.4219 139.906H45.2344L49.6094 154.188C49.7135 154.562 49.8802 155.177 50.1094 156.031C50.3385 156.885 50.5052 157.5 50.6094 157.875C50.6927 157.604 50.8177 157.156 50.9844 156.531C51.276 155.448 51.5052 154.656 51.6719 154.156L56.3281 139.906H58.1094L60.6719 161H58.9219L57.3906 147.938C57.349 147.396 57.2656 146.552 57.1406 145.406C57.0156 144.26 56.9219 143.417 56.8594 142.875C56.6927 143.417 56.4323 144.271 56.0781 145.438C55.7448 146.583 55.4844 147.427 55.2969 147.969L51.2031 160.188L49.7344 160.25L45.9219 147.906C45.7135 147.281 45.4219 146.281 45.0469 144.906C44.776 143.927 44.5677 143.208 44.4219 142.75C44.3385 143.438 44.1927 144.542 43.9844 146.062C43.8802 146.917 43.7969 147.552 43.7344 147.969L42.0156 161ZM64.1094 139.906H65.7969V161H64.1094V139.906ZM85.2344 161L83.7344 161.219L72.8906 142.969V161H71.2656V139.906L72.8281 139.688L83.6094 157.625V139.906H85.2344V161Z" fill="#E0E0E0"/>
<path fill-rule="evenodd" clip-rule="evenodd" d="M81 52V28V25H80.81C79.019 10.9467 64.789 0 47.5 0C30.211 0 15.981 10.9467 14.19 25H14V28V52C6.26801 52 0 58.268 0 66V116C0 123.732 6.26801 130 14 130H81C88.732 130 95 123.732 95 116V66C95 58.268 88.732 52 81 52ZM71 52V30.7521V28.4215H70.8667C69.6104 17.504 59.6281 9 47.5 9C35.3719 9 25.3896 17.504 24.1333 28.4215H24V30.7521V52H71Z" fill="#D9D9D9"/>
<path fill-rule="evenodd" clip-rule="evenodd" d="M49.5431 94.7183C52.6923 93.8288 55 90.9339 55 87.5C55 83.3579 51.6421 80 47.5 80C43.3579 80 40 83.3579 40 87.5C40 90.9339 42.3077 93.8288 45.4569 94.7183L41.0048 105H53.9952L49.5431 94.7183Z" fill="black"/>
</svg>
