<svg width="122" height="116" viewBox="0 0 122 116" fill="none" xmlns="http://www.w3.org/2000/svg">
<circle cx="63.1986" cy="31.0358" r="29.0358" fill="#212121"/>
<path fill-rule="evenodd" clip-rule="evenodd" d="M5.64481 106.039C3.52841 110.409 6.89613 115.24 11.7516 115.24H114.646C119.501 115.24 122.869 110.409 120.752 106.039C108.793 81.346 87.4888 64.9109 63.1986 64.9109C38.9084 64.9109 17.6037 81.346 5.64481 106.039Z" fill="#212121"/>
<circle cx="58.5567" cy="29.7962" r="29.0358" fill="#D9D9D9"/>
<path fill-rule="evenodd" clip-rule="evenodd" d="M1.00291 104.799C-1.1135 109.169 2.25422 114 7.10974 114H110.004C114.859 114 118.227 109.169 116.11 104.799C104.152 80.1065 82.8469 63.6713 58.5567 63.6713C34.2665 63.6713 12.9618 80.1065 1.00291 104.799Z" fill="#D9D9D9"/>
</svg>
