<svg width="126" height="129" viewBox="0 0 126 129" fill="none" xmlns="http://www.w3.org/2000/svg">
<path fill-rule="evenodd" clip-rule="evenodd" d="M78.5747 6.48904C78.5747 5.38447 77.6793 4.48904 76.5747 4.48904H53.6404C52.5358 4.48904 51.6404 5.38447 51.6404 6.48904V18.586C51.6404 19.4657 51.0641 20.2382 50.231 20.5206C43.1738 22.9135 36.844 26.8825 31.6608 32.0085C31.003 32.659 29.9922 32.8094 29.1911 32.3469L18.9565 26.438C17.9999 25.8857 16.7767 26.2134 16.2244 27.17L4.75728 47.0317C4.20499 47.9883 4.53275 49.2115 5.48933 49.7637L16.9138 56.3597C17.6554 56.7878 18.0381 57.64 17.8964 58.4846C17.4545 61.1198 17.2244 63.8268 17.2244 66.5875C17.2244 70.0705 17.5906 73.468 18.2865 76.7435C18.4713 77.6134 18.0915 78.5124 17.3213 78.9571L5.48929 85.7883C4.5327 86.3406 4.20495 87.5637 4.75724 88.5203L16.2244 108.382C16.7767 109.339 17.9998 109.666 18.9564 109.114L30.7486 102.306C31.5217 101.859 32.4942 101.983 33.1548 102.583C38.0423 107.026 43.8382 110.487 50.231 112.654C51.0642 112.937 51.6404 113.709 51.6404 114.589V126.686C51.6404 127.791 52.5358 128.686 53.6404 128.686H76.5747C77.6793 128.686 78.5747 127.791 78.5747 126.686V115.07C78.5747 114.166 79.182 113.379 80.0464 113.116C86.7557 111.072 92.8499 107.617 97.9831 103.096C98.644 102.514 99.6023 102.401 100.365 102.841L111.23 109.114C112.187 109.666 113.41 109.339 113.962 108.382L125.429 88.5203C125.981 87.5637 125.654 86.3406 124.697 85.7883L114.218 79.738C113.437 79.2872 113.059 78.3708 113.26 77.492C114.063 73.9865 114.487 70.3366 114.487 66.5875C114.487 63.1046 114.121 59.7071 113.425 56.4315C113.24 55.5616 113.62 54.6626 114.39 54.218L124.697 48.2674C125.654 47.7151 125.981 46.4919 125.429 45.5353L113.962 25.6736C113.41 24.7171 112.186 24.3893 111.23 24.9416L100.963 30.8692C100.19 31.3156 99.2173 31.1923 98.5567 30.5918C93.3063 25.8192 87.0074 22.1795 80.0464 20.0592C79.182 19.7959 78.5747 19.0087 78.5747 18.1051V6.48904Z" fill="#212121"/>
<circle cx="64.7061" cy="67.3357" r="16.4598" fill="#404040"/>
<path fill-rule="evenodd" clip-rule="evenodd" d="M74.0857 2C74.0857 0.895431 73.1903 0 72.0857 0H49.1514C48.0469 0 47.1514 0.895429 47.1514 2V14.097C47.1514 14.9767 46.5751 15.7491 45.742 16.0316C38.6848 18.4244 32.355 22.3935 27.1718 27.5194C26.514 28.17 25.5032 28.3204 24.7021 27.8578L14.4675 21.9489C13.5109 21.3966 12.2877 21.7244 11.7354 22.681L0.268283 42.5426C-0.284002 43.4992 0.0437491 44.7224 1.00033 45.2747L12.4248 51.8706C13.1664 52.2988 13.5491 53.151 13.4074 53.9956C12.9655 56.6307 12.7354 59.3378 12.7354 62.0985C12.7354 65.5815 13.1016 68.979 13.7975 72.2545C13.9823 73.1244 13.6025 74.0234 12.8323 74.468L1.00035 81.2992C0.0437672 81.8515 -0.283982 83.0747 0.268303 84.0313L11.7354 103.893C12.2877 104.85 13.5109 105.177 14.4675 104.625L26.2596 97.8168C27.0327 97.3705 28.0053 97.4937 28.6658 98.0942C33.5533 102.537 39.3492 105.998 45.742 108.165C46.5752 108.448 47.1514 109.22 47.1514 110.1V122.197C47.1514 123.302 48.0469 124.197 49.1514 124.197H72.0857C73.1903 124.197 74.0857 123.302 74.0857 122.197V110.581C74.0857 109.677 74.693 108.89 75.5574 108.627C82.2667 106.583 88.3609 103.128 93.4941 98.6075C94.155 98.0254 95.1133 97.9118 95.876 98.3522L106.741 104.625C107.697 105.177 108.921 104.85 109.473 103.893L120.94 84.0313C121.492 83.0747 121.165 81.8515 120.208 81.2992L109.729 75.249C108.948 74.7982 108.57 73.8818 108.771 73.003C109.574 69.4975 109.998 65.8476 109.998 62.0985C109.998 58.6155 109.632 55.218 108.936 51.9425C108.751 51.0726 109.131 50.1736 109.901 49.7289L120.208 43.7783C121.165 43.226 121.492 42.0029 120.94 41.0463L109.473 21.1846C108.921 20.228 107.697 19.9003 106.741 20.4525L96.4739 26.3802C95.7008 26.8265 94.7283 26.7032 94.0677 26.1028C88.8173 21.3301 82.5184 17.6905 75.5574 15.5701C74.693 15.3068 74.0857 14.5196 74.0857 13.616V2Z" fill="#D9D9D9"/>
<circle cx="60.2171" cy="62.8467" r="16.4598" fill="#404040"/>
</svg>
