<svg width="126" height="129" viewBox="0 0 126 129" fill="none" xmlns="http://www.w3.org/2000/svg">
<path fill-rule="evenodd" clip-rule="evenodd" d="M76.5747 4.48904C77.6792 4.48904 78.5747 5.38447 78.5747 6.48904V18.1051C78.5747 19.0087 79.1819 19.7959 80.0463 20.0592C87.0073 22.1795 93.3062 25.8192 98.5566 30.5918C99.2172 31.1923 100.19 31.3156 100.963 30.8692L111.23 24.9416C112.186 24.3893 113.41 24.7171 113.962 25.6736L125.429 45.5353C125.981 46.4919 125.654 47.7151 124.697 48.2674L114.39 54.218C113.62 54.6626 113.24 55.5616 113.425 56.4315C114.121 59.7071 114.487 63.1046 114.487 66.5875C114.487 70.3366 114.063 73.9865 113.26 77.492C113.058 78.3708 113.437 79.2872 114.218 79.738L124.697 85.7883C125.654 86.3406 125.981 87.5637 125.429 88.5203L113.962 108.382C113.41 109.339 112.186 109.666 111.23 109.114L100.365 102.841C99.6022 102.401 98.644 102.514 97.983 103.096C92.8499 107.617 86.7557 111.072 80.0463 113.116C79.1819 113.379 78.5747 114.166 78.5747 115.07V126.686C78.5747 127.791 77.6792 128.686 76.5747 128.686H53.6404C52.5358 128.686 51.6404 127.791 51.6404 126.686V114.589C51.6404 113.709 51.0641 112.937 50.231 112.654C43.8381 110.487 38.0422 107.026 33.1548 102.583C32.4942 101.983 31.5217 101.859 30.7485 102.306L18.9564 109.114C17.9998 109.666 16.7766 109.339 16.2243 108.382L4.75718 88.5203C4.20489 87.5637 4.53264 86.3406 5.48922 85.7883L17.3212 78.9571C18.0914 78.5124 18.4712 77.6134 18.2864 76.7435C17.5905 73.468 17.2244 70.0705 17.2244 66.5875C17.2244 63.8268 17.4544 61.1198 17.8964 58.4846C18.038 57.64 17.6554 56.7878 16.9137 56.3597L5.48927 49.7637C4.53269 49.2115 4.20493 47.9883 4.75722 47.0317L16.2244 27.17C16.7766 26.2134 17.9998 25.8857 18.9564 26.438L29.191 32.3469C29.9921 32.8094 31.0029 32.659 31.6607 32.0085C36.8439 26.8825 43.1737 22.9135 50.2309 20.5206C51.064 20.2382 51.6404 19.4657 51.6404 18.586V6.48904C51.6404 5.38447 52.5358 4.48904 53.6404 4.48904H76.5747ZM64.7061 83.7956C73.7966 83.7956 81.1659 76.4262 81.1659 67.3357C81.1659 58.2452 73.7966 50.8759 64.7061 50.8759C55.6155 50.8759 48.2462 58.2452 48.2462 67.3357C48.2462 76.4262 55.6155 83.7956 64.7061 83.7956Z" fill="#212121"/>
<path fill-rule="evenodd" clip-rule="evenodd" d="M72.0857 0C73.1902 0 74.0857 0.895431 74.0857 2V13.616C74.0857 14.5196 74.6929 15.3068 75.5574 15.5701C82.5183 17.6905 88.8172 21.3301 94.0676 26.1028C94.7282 26.7032 95.7007 26.8265 96.4739 26.3802L106.741 20.4525C107.697 19.9003 108.921 20.228 109.473 21.1846L120.94 41.0463C121.492 42.0029 121.165 43.226 120.208 43.7783L109.901 49.7289C109.131 50.1736 108.751 51.0726 108.936 51.9425C109.632 55.218 109.998 58.6155 109.998 62.0985C109.998 65.8476 109.574 69.4975 108.771 73.003C108.569 73.8818 108.948 74.7982 109.729 75.249L120.208 81.2992C121.165 81.8515 121.492 83.0747 120.94 84.0313L109.473 103.893C108.921 104.85 107.697 105.177 106.741 104.625L95.8759 98.3522C95.1132 97.9118 94.155 98.0254 93.494 98.6075C88.3608 103.128 82.2667 106.583 75.5573 108.627C74.6929 108.89 74.0857 109.677 74.0857 110.581V122.197C74.0857 123.302 73.1902 124.197 72.0857 124.197H49.1514C48.0468 124.197 47.1514 123.302 47.1514 122.197V110.1C47.1514 109.22 46.5751 108.448 45.742 108.165C39.3492 105.998 33.5532 102.537 28.6658 98.0942C28.0052 97.4937 27.0327 97.3705 26.2596 97.8168L14.4674 104.625C13.5108 105.177 12.2877 104.85 11.7354 103.893L0.268242 84.0313C-0.284043 83.0747 0.0437062 81.8515 1.00029 81.2992L12.8322 74.468C13.6024 74.0234 13.9822 73.1244 13.7974 72.2545C13.1015 68.979 12.7354 65.5815 12.7354 62.0985C12.7354 59.3378 12.9654 56.6307 13.4074 53.9956C13.549 53.151 13.1664 52.2988 12.4247 51.8706L1.00027 45.2747C0.0436881 44.7224 -0.284063 43.4992 0.268222 42.5426L11.7354 22.681C12.2877 21.7244 13.5108 21.3966 14.4674 21.9489L24.702 27.8578C25.5032 28.3204 26.514 28.17 27.1717 27.5194C32.3549 22.3935 38.6847 18.4244 45.7419 16.0316C46.575 15.7491 47.1514 14.9767 47.1514 14.097V2C47.1514 0.895429 48.0468 0 49.1514 0H72.0857ZM60.217 79.3065C69.3076 79.3065 76.6769 71.9372 76.6769 62.8467C76.6769 53.7562 69.3076 46.3868 60.217 46.3868C51.1265 46.3868 43.7572 53.7562 43.7572 62.8467C43.7572 71.9372 51.1265 79.3065 60.217 79.3065Z" fill="#D9D9D9"/>
</svg>
