<svg width="105" height="112" viewBox="0 0 105 112" fill="none" xmlns="http://www.w3.org/2000/svg">
<path fill-rule="evenodd" clip-rule="evenodd" d="M54.7182 1C58.1413 1 60.9522 2.60173 61.2537 4.64568H61.2804V5.01025V10.2269C65.3995 10.8692 69.2653 12.1403 72.7394 13.9208C72.3986 15.2689 72.2174 16.6807 72.2174 18.1347C72.2174 27.5967 79.8869 35.2674 89.3485 35.2694C89.5113 36.2275 89.6214 37.2005 89.6762 38.1859H89.7167V39.6442V67.3782L103.489 83.7436C105.679 86.3453 103.829 90.3191 100.429 90.3191H9.00767C5.60726 90.3191 3.75771 86.3453 5.94721 83.7436L20.4488 66.5118V39.6442V38.1859H20.4893C21.2577 24.3764 32.8818 13.0238 48.156 10.3476V5.01025V4.64568H48.1827C48.4841 2.60173 51.2951 1 54.7182 1ZM55.078 111.829C46.1512 111.829 38.8896 105.333 38.6772 97.2459H71.4787C71.2663 105.333 64.0047 111.829 55.078 111.829Z" fill="#212121"/>
<path fill-rule="evenodd" clip-rule="evenodd" d="M49.7182 0C53.1413 0 55.9522 1.60173 56.2537 3.64568H56.2804V4.01025V9.22692C60.3995 9.86924 64.2653 11.1403 67.7394 12.9208C67.3986 14.2689 67.2174 15.6807 67.2174 17.1347C67.2174 26.5967 74.8869 34.2674 84.3485 34.2694C84.5113 35.2275 84.6214 36.2005 84.6762 37.1859H84.7167V38.6442V66.3782L98.4891 82.7436C100.679 85.3453 98.8291 89.3191 95.4287 89.3191H4.00767C0.607262 89.3191 -1.24229 85.3453 0.94721 82.7436L15.4488 65.5118V38.6442V37.1859H15.4893C16.2577 23.3764 27.8818 12.0238 43.156 9.34763V4.01025V3.64568H43.1827C43.4841 1.60173 46.2951 0 49.7182 0ZM50.078 110.829C41.1512 110.829 33.8896 104.333 33.6772 96.2459H66.4787C66.2663 104.333 59.0047 110.829 50.078 110.829Z" fill="#D9D9D9"/>
<circle cx="85.0812" cy="16.4055" r="15.6764" fill="#DF5A5A"/>
</svg>
