<svg width="129" height="127" viewBox="0 0 129 127" fill="none" xmlns="http://www.w3.org/2000/svg">
<path fill-rule="evenodd" clip-rule="evenodd" d="M67 127C101.242 127 129 99.2416 129 65C129 30.7583 101.242 3 67 3C32.7583 3 5 30.7583 5 65C5 99.2416 32.7583 127 67 127ZM57.3125 78.7563V80.5H74.4594V78.7563C74.4594 76.8188 74.7621 75.1719 75.3676 73.8156C75.9731 72.4352 76.8692 71.2121 78.0559 70.1465C79.2426 69.0566 80.7078 68.0031 82.4516 66.9859C84.825 65.6055 86.8957 64.0797 88.6637 62.4086C90.4559 60.7133 91.8485 58.7637 92.8414 56.5598C93.8586 54.3316 94.3672 51.7523 94.3672 48.8219C94.3672 44.2688 93.1926 40.4785 90.8434 37.4512C88.4942 34.3996 85.2852 32.123 81.2164 30.6215C77.1477 29.0957 72.5219 28.3328 67.3391 28.3328C62.6406 28.3328 58.3297 29.1199 54.4063 30.6941C50.4828 32.2441 47.3344 34.6902 44.961 38.0324C42.5875 41.3504 41.3766 45.6734 41.3281 51.0016H59.9281C59.9281 49.5969 60.2551 48.3617 60.909 47.2961C61.5871 46.2305 62.4711 45.3949 63.561 44.7895C64.675 44.184 65.886 43.8813 67.1938 43.8813C68.4047 43.8813 69.5067 44.1355 70.4996 44.6441C71.4926 45.1527 72.2797 45.8672 72.861 46.7875C73.4422 47.7078 73.7328 48.7734 73.7328 49.9844C73.7328 51.3406 73.3695 52.5516 72.643 53.6172C71.9406 54.6828 70.9719 55.6879 69.7367 56.6324C68.5258 57.577 67.1453 58.5578 65.5953 59.575C63.8031 60.7375 62.2895 62.0453 61.0543 63.4984C59.8192 64.9273 58.8867 66.8285 58.257 69.202C57.6274 71.5754 57.3125 74.7602 57.3125 78.7563ZM58.9473 101.97C60.9574 103.932 63.3672 104.913 66.1766 104.913C67.9688 104.913 69.6277 104.464 71.1535 103.568C72.6793 102.648 73.9145 101.425 74.859 99.8992C75.8277 98.3492 76.3242 96.6297 76.3485 94.7406C76.3242 91.9797 75.2828 89.6184 73.2242 87.6566C71.1899 85.6949 68.8406 84.7141 66.1766 84.7141C63.3672 84.7141 60.9574 85.6949 58.9473 87.6566C56.9613 89.6184 55.9805 91.9797 56.0047 94.7406C55.9805 97.5742 56.9613 99.984 58.9473 101.97Z" fill="#212121"/>
<path fill-rule="evenodd" clip-rule="evenodd" d="M62 124C96.2417 124 124 96.2417 124 62C124 27.7583 96.2417 0 62 0C27.7583 0 0 27.7583 0 62C0 96.2417 27.7583 124 62 124ZM52.3125 75.7563V77.5H69.4594V75.7563C69.4594 73.8188 69.7621 72.1719 70.3676 70.8156C70.973 69.4352 71.8691 68.2121 73.0559 67.1465C74.2426 66.0566 75.7078 65.0031 77.4516 63.9859C79.825 62.6055 81.8957 61.0797 83.6637 59.4086C85.4559 57.7133 86.8484 55.7637 87.8414 53.5598C88.8586 51.3316 89.3672 48.7523 89.3672 45.8219C89.3672 41.2688 88.1926 37.4785 85.8434 34.4512C83.4941 31.3996 80.2852 29.1231 76.2164 27.6215C72.1477 26.0957 67.5219 25.3328 62.3391 25.3328C57.6406 25.3328 53.3297 26.1199 49.4062 27.6941C45.4828 29.2441 42.3344 31.6902 39.9609 35.0324C37.5875 38.3504 36.3766 42.6734 36.3281 48.0016H54.9281C54.9281 46.5969 55.2551 45.3617 55.909 44.2961C56.5871 43.2305 57.4711 42.3949 58.5609 41.7895C59.675 41.184 60.8859 40.8813 62.1938 40.8813C63.4047 40.8813 64.5066 41.1356 65.4996 41.6441C66.4926 42.1527 67.2797 42.8672 67.8609 43.7875C68.4422 44.7078 68.7328 45.7734 68.7328 46.9844C68.7328 48.3406 68.3695 49.5516 67.643 50.6172C66.9406 51.6828 65.9719 52.6879 64.7367 53.6324C63.5258 54.577 62.1453 55.5578 60.5953 56.575C58.8031 57.7375 57.2895 59.0453 56.0543 60.4984C54.8191 61.9274 53.8867 63.8285 53.257 66.202C52.6273 68.5754 52.3125 71.7602 52.3125 75.7563ZM53.9473 98.9699C55.9574 100.932 58.3672 101.913 61.1766 101.913C62.9687 101.913 64.6277 101.464 66.1535 100.568C67.6793 99.6481 68.9145 98.425 69.859 96.8992C70.8277 95.3492 71.3242 93.6297 71.3484 91.7406C71.3242 88.9797 70.2828 86.6184 68.2242 84.6566C66.1898 82.6949 63.8406 81.7141 61.1766 81.7141C58.3672 81.7141 55.9574 82.6949 53.9473 84.6566C51.9613 86.6184 50.9805 88.9797 51.0047 91.7406C50.9805 94.5742 51.9613 96.984 53.9473 98.9699Z" fill="#D9D9D9"/>
</svg>
