<svg width="104" height="114" viewBox="0 0 104 114" fill="none" xmlns="http://www.w3.org/2000/svg">
<path fill-rule="evenodd" clip-rule="evenodd" d="M60.2537 6.64568C59.9522 4.60173 57.1413 3 53.7182 3C50.2951 3 47.4841 4.60173 47.1827 6.64568H47.156V7.01025V12.3476C31.8818 15.0238 20.2577 26.3764 19.4893 40.1859H19.4488V41.6442V68.5118L4.94721 85.7436C2.75771 88.3453 4.60726 92.3191 8.00767 92.3191H99.4287C102.829 92.3191 104.679 88.3453 102.489 85.7436L88.7167 69.3782V41.6442V40.1859H88.6762C87.8956 26.1575 75.9124 14.6645 60.2804 12.2269V7.01025V6.64568H60.2537ZM37.6772 99.2459C37.8896 107.333 45.1512 113.829 54.078 113.829C63.0047 113.829 70.2663 107.333 70.4787 99.2459H37.6772Z" fill="#212121"/>
<path fill-rule="evenodd" clip-rule="evenodd" d="M56.2536 3.64568C55.9522 1.60173 53.1413 0 49.7182 0C46.2951 0 43.4841 1.60173 43.1827 3.64568H43.156V4.01025V9.34763C27.8818 12.0238 16.2577 23.3764 15.4893 37.1859H15.4488V38.6442V65.5118L0.94721 82.7436C-1.24229 85.3453 0.607262 89.3191 4.00767 89.3191H95.4287C98.8291 89.3191 100.679 85.3453 98.4891 82.7436L84.7167 66.3782V38.6442V37.1859H84.6762C83.8956 23.1575 71.9124 11.6645 56.2804 9.22692V4.01025V3.64568H56.2536ZM33.6772 96.2459C33.8896 104.333 41.1512 110.829 50.078 110.829C59.0047 110.829 66.2663 104.333 66.4787 96.2459H33.6772Z" fill="#D9D9D9"/>
</svg>
