<svg width="490" height="490" viewBox="0 0 490 490" fill="none" xmlns="http://www.w3.org/2000/svg">
<rect x="490" y="490" width="490" height="490" transform="rotate(-180 490 490)" fill="url(#paint0_radial_89_37)"/>
<path d="M35 133L183.847 0H227L74.4007 133H35Z" fill="#2B2B2B"/>
<path d="M35 133L183.847 0H227L74.4007 133H35Z" fill="#2B2B2B"/>
<path d="M348.5 22L371.866 0H442L416.601 22H348.5Z" fill="#2B2B2B"/>
<path d="M348.5 22L371.866 0H442L416.601 22H348.5Z" fill="#2B2B2B"/>
<path d="M84.9006 133L233.748 -1.52588e-05L247 -3.05176e-05L94.4007 133L84.9006 133Z" fill="#2B2B2B"/>
<path d="M84.9006 133L233.748 -1.52588e-05L247 -3.05176e-05L94.4007 133L84.9006 133Z" fill="#2B2B2B"/>
<path d="M316.879 490L404.024 414L404.024 426.747L331 490H316.879Z" fill="#2B2B2B"/>
<path d="M316.879 490L404.024 414L404.024 426.747L331 490H316.879Z" fill="#2B2B2B"/>
<path d="M294.813 490L424.24 371H441.74L308.879 490L294.813 490Z" fill="#2B2B2B"/>
<path d="M294.813 490L424.24 371H441.74L308.879 490L294.813 490Z" fill="#2B2B2B"/>
<defs>
<radialGradient id="paint0_radial_89_37" cx="0" cy="0" r="1" gradientUnits="userSpaceOnUse" gradientTransform="translate(707.5 701) rotate(45.6753) scale(389.996)">
<stop offset="0.055" stop-color="#D3D3D3"/>
<stop offset="0.53" stop-color="#A6A6A6"/>
<stop offset="1" stop-color="#7E7E7E"/>
</radialGradient>
</defs>
</svg>
