<svg width="200" height="200" viewBox="0 0 200 200" fill="none" xmlns="http://www.w3.org/2000/svg">
<rect width="200" height="200" fill="#727272"/>
<path d="M31.7812 165.594C31.7812 166.969 31.4167 168.135 30.6875 169.094C29.5833 170.531 27.9583 171.25 25.8125 171.25C23.8958 171.25 22.0833 170.646 20.375 169.438L21.1562 168.156C22.7812 169.219 24.3646 169.76 25.9062 169.781C26.6354 169.781 27.3021 169.646 27.9062 169.375C29.3229 168.688 30.0312 167.448 30.0312 165.656C30.0312 164.99 29.8958 164.385 29.625 163.844C29.1667 162.948 28.1354 162.104 26.5312 161.312C24.8229 160.458 23.8229 159.938 23.5312 159.75C21.7396 158.604 20.8438 157.042 20.8438 155.062C20.8438 153.646 21.3229 152.438 22.2812 151.438C23.4479 150.25 24.9479 149.656 26.7812 149.656C27.2188 149.656 27.6458 149.698 28.0625 149.781C29.8958 150.135 31.1458 151.104 31.8125 152.688L30.4375 153.406C30.375 153.281 30.3021 153.146 30.2188 153C29.4062 151.75 28.2188 151.125 26.6562 151.125C25.9271 151.125 25.2396 151.292 24.5938 151.625C23.2396 152.333 22.5625 153.469 22.5625 155.031C22.5625 155.615 22.6771 156.146 22.9062 156.625C23.3229 157.479 24.3229 158.292 25.9062 159.062C27.6771 159.958 28.7083 160.5 29 160.688C30.8542 161.875 31.7812 163.51 31.7812 165.594ZM42.5938 169.688C44.1562 169.688 45.8854 169.083 47.7812 167.875L48.5 169.125C46.3542 170.521 44.3125 171.229 42.375 171.25C40.5625 171.25 39 170.688 37.6875 169.562C35.5417 167.688 34.4688 164.667 34.4688 160.5C34.4688 157.521 35.0729 155.073 36.2812 153.156C37.7604 150.823 39.8542 149.656 42.5625 149.656C43.0417 149.656 43.5208 149.698 44 149.781C46.3542 150.26 48 151.74 48.9375 154.219L47.3438 154.75C46.3646 152.417 44.75 151.229 42.5 151.188C41.2917 151.188 40.2292 151.521 39.3125 152.188C37.3125 153.667 36.3125 156.438 36.3125 160.5C36.3125 162.562 36.6042 164.323 37.1875 165.781C38.25 168.385 40.0521 169.688 42.5938 169.688ZM66.2812 160.5C66.2812 163.208 65.7396 165.521 64.6562 167.438C63.1979 169.979 61.0729 171.25 58.2812 171.25C56.4271 171.25 54.8542 170.719 53.5625 169.656C51.3958 167.844 50.3125 164.792 50.3125 160.5C50.3125 157.708 50.8958 155.333 52.0625 153.375C53.5417 150.896 55.6458 149.656 58.375 149.656C60.2917 149.656 61.9062 150.25 63.2188 151.438C65.2604 153.333 66.2812 156.354 66.2812 160.5ZM52.125 160.5C52.125 162.521 52.4167 164.271 53 165.75C54.0417 168.396 55.8021 169.719 58.2812 169.719C59.7188 169.719 60.9479 169.229 61.9688 168.25C63.6354 166.604 64.4688 164.021 64.4688 160.5C64.4688 158.438 64.1667 156.646 63.5625 155.125C62.5208 152.5 60.7812 151.188 58.3438 151.188C56.8646 151.188 55.5938 151.729 54.5312 152.812C52.9271 154.521 52.125 157.083 52.125 160.5ZM71.75 171H70.0625V149.906C71.0833 149.865 72.6562 149.844 74.7812 149.844C75.3646 149.844 75.9062 149.875 76.4062 149.938C80.0729 150.312 81.9062 152.167 81.9062 155.5C81.9062 156.167 81.8229 156.792 81.6562 157.375C81.0729 159.458 79.6354 160.792 77.3438 161.375L81.1875 169.031C81.4583 169.594 81.8542 169.896 82.375 169.938H82.5625L82.6562 171.156C82.4479 171.219 82.1771 171.25 81.8438 171.25C80.9896 171.229 80.3021 170.729 79.7812 169.75L75.7188 161.656C75.5312 161.677 75.2188 161.688 74.7812 161.688H71.75V171ZM74.5938 151.281C73.6146 151.281 72.6667 151.312 71.75 151.375V160.219H74.5625C74.6875 160.219 74.8333 160.219 75 160.219C78.4167 160.094 80.125 158.594 80.125 155.719C80.125 154.844 80 154.104 79.75 153.5C79.1042 152.021 77.3854 151.281 74.5938 151.281ZM96.0625 169.562V171H85.8125V149.906H95.7812V151.344H87.4688V159.25H94.875V160.688H87.4688V169.562H96.0625ZM112.188 164.906C112.167 169.01 109.365 171.073 103.781 171.094C102.323 171.094 101.156 171.062 100.281 171V149.906C101.281 149.865 102.896 149.844 105.125 149.844C106.458 149.844 107.615 150.031 108.594 150.406C110.573 151.219 111.562 152.708 111.562 154.875C111.562 155.75 111.354 156.573 110.938 157.344C110.208 158.677 109.125 159.521 107.688 159.875C108.667 160.021 109.521 160.365 110.25 160.906C111.542 161.906 112.188 163.24 112.188 164.906ZM104.906 151.281C104.302 151.281 103.312 151.302 101.938 151.344V159.344H104.625C105.729 159.344 106.688 159.156 107.5 158.781C109.042 158.073 109.812 156.875 109.812 155.188C109.792 152.604 108.156 151.302 104.906 151.281ZM104.406 169.656C108.344 169.635 110.333 168.094 110.375 165.031C110.375 164.656 110.344 164.302 110.281 163.969C109.823 161.802 108.062 160.719 105 160.719H101.938V169.531C102.729 169.615 103.552 169.656 104.406 169.656ZM130.75 160.5C130.75 163.208 130.208 165.521 129.125 167.438C127.667 169.979 125.542 171.25 122.75 171.25C120.896 171.25 119.323 170.719 118.031 169.656C115.865 167.844 114.781 164.792 114.781 160.5C114.781 157.708 115.365 155.333 116.531 153.375C118.01 150.896 120.115 149.656 122.844 149.656C124.76 149.656 126.375 150.25 127.688 151.438C129.729 153.333 130.75 156.354 130.75 160.5ZM116.594 160.5C116.594 162.521 116.885 164.271 117.469 165.75C118.51 168.396 120.271 169.719 122.75 169.719C124.188 169.719 125.417 169.229 126.438 168.25C128.104 166.604 128.938 164.021 128.938 160.5C128.938 158.438 128.635 156.646 128.031 155.125C126.99 152.5 125.25 151.188 122.812 151.188C121.333 151.188 120.062 151.729 119 152.812C117.396 154.521 116.594 157.083 116.594 160.5ZM133.531 171H131.75L138.469 149.906H140.781L147.438 171H145.562L143.875 165.562H135.219L133.531 171ZM138.438 155.219L135.656 164.188H143.469L140.688 155.188C140.625 154.958 140.51 154.542 140.344 153.938C139.969 152.667 139.708 151.781 139.562 151.281C139.417 151.76 139.042 153.073 138.438 155.219ZM151.969 171H150.281V149.906C151.302 149.865 152.875 149.844 155 149.844C155.583 149.844 156.125 149.875 156.625 149.938C160.292 150.312 162.125 152.167 162.125 155.5C162.125 156.167 162.042 156.792 161.875 157.375C161.292 159.458 159.854 160.792 157.562 161.375L161.406 169.031C161.677 169.594 162.073 169.896 162.594 169.938H162.781L162.875 171.156C162.667 171.219 162.396 171.25 162.062 171.25C161.208 171.229 160.521 170.729 160 169.75L155.938 161.656C155.75 161.677 155.438 161.688 155 161.688H151.969V171ZM154.812 151.281C153.833 151.281 152.885 151.312 151.969 151.375V160.219H154.781C154.906 160.219 155.052 160.219 155.219 160.219C158.635 160.094 160.344 158.594 160.344 155.719C160.344 154.844 160.219 154.104 159.969 153.5C159.323 152.021 157.604 151.281 154.812 151.281ZM166.031 149.906C166.51 149.906 167.208 149.896 168.125 149.875C169.458 149.833 170.438 149.812 171.062 149.812C173.042 149.812 174.719 150.281 176.094 151.219C178.594 152.948 179.844 156.042 179.844 160.5C179.844 162.896 179.396 164.969 178.5 166.719C177 169.656 174.5 171.115 171 171.094C169.604 171.094 167.948 171.062 166.031 171V149.906ZM171 169.594C172.5 169.594 173.792 169.219 174.875 168.469C176.979 166.99 178.031 164.333 178.031 160.5C178.031 158.896 177.844 157.469 177.469 156.219C176.448 152.948 174.312 151.312 171.062 151.312C169.667 151.312 168.542 151.323 167.688 151.344V169.562C168.521 169.583 169.625 169.594 171 169.594Z" fill="#E0E0E0"/>
<rect x="53" y="96" width="27" height="44" fill="#D9D9D9"/>
<rect x="87" y="50" width="27" height="90" fill="#D9D9D9"/>
<rect x="121" y="72" width="27" height="68" fill="#D9D9D9"/>
<path d="M100.516 35L106.758 40.9575L113 35V47H88V35L94.2738 40.9575L100.516 35Z" fill="#D9D9D9"/>
</svg>
