<svg width="200" height="200" viewBox="0 0 200 200" fill="none" xmlns="http://www.w3.org/2000/svg">
<rect width="200" height="200" fill="url(#paint0_linear_10_4)"/>
<path d="M78.3125 163.562C78.3125 165.292 77.9896 166.771 77.3438 168C76.1979 170.188 74.2188 171.281 71.4062 171.281C70.8021 171.281 70.2292 171.229 69.6875 171.125C66.2917 170.438 64.5938 167.792 64.5938 163.188V149.906H66.2812V163.219C66.3229 167.469 68.0208 169.646 71.375 169.75C74.8333 169.708 76.5938 167.635 76.6562 163.531V149.906H78.3125V163.562ZM93.5938 165.594C93.5938 166.969 93.2292 168.135 92.5 169.094C91.3958 170.531 89.7708 171.25 87.625 171.25C85.7083 171.25 83.8958 170.646 82.1875 169.438L82.9688 168.156C84.5938 169.219 86.1771 169.76 87.7188 169.781C88.4479 169.781 89.1146 169.646 89.7188 169.375C91.1354 168.688 91.8438 167.448 91.8438 165.656C91.8438 164.99 91.7083 164.385 91.4375 163.844C90.9792 162.948 89.9479 162.104 88.3438 161.312C86.6354 160.458 85.6354 159.938 85.3438 159.75C83.5521 158.604 82.6562 157.042 82.6562 155.062C82.6562 153.646 83.1354 152.438 84.0938 151.438C85.2604 150.25 86.7604 149.656 88.5938 149.656C89.0312 149.656 89.4583 149.698 89.875 149.781C91.7083 150.135 92.9583 151.104 93.625 152.688L92.25 153.406C92.1875 153.281 92.1146 153.146 92.0312 153C91.2188 151.75 90.0312 151.125 88.4688 151.125C87.7396 151.125 87.0521 151.292 86.4062 151.625C85.0521 152.333 84.375 153.469 84.375 155.031C84.375 155.615 84.4896 156.146 84.7188 156.625C85.1354 157.479 86.1354 158.292 87.7188 159.062C89.4896 159.958 90.5208 160.5 90.8125 160.688C92.6667 161.875 93.5938 163.51 93.5938 165.594ZM107.875 169.562V171H97.625V149.906H107.594V151.344H99.2812V159.25H106.688V160.688H99.2812V169.562H107.875ZM113.781 171H112.094V149.906C113.115 149.865 114.688 149.844 116.812 149.844C117.396 149.844 117.938 149.875 118.438 149.938C122.104 150.312 123.938 152.167 123.938 155.5C123.938 156.167 123.854 156.792 123.688 157.375C123.104 159.458 121.667 160.792 119.375 161.375L123.219 169.031C123.49 169.594 123.885 169.896 124.406 169.938H124.594L124.688 171.156C124.479 171.219 124.208 171.25 123.875 171.25C123.021 171.229 122.333 170.729 121.812 169.75L117.75 161.656C117.562 161.677 117.25 161.688 116.812 161.688H113.781V171ZM116.625 151.281C115.646 151.281 114.698 151.312 113.781 151.375V160.219H116.594C116.719 160.219 116.865 160.219 117.031 160.219C120.448 160.094 122.156 158.594 122.156 155.719C122.156 154.844 122.031 154.104 121.781 153.5C121.135 152.021 119.417 151.281 116.625 151.281ZM137.438 165.594C137.438 166.969 137.073 168.135 136.344 169.094C135.24 170.531 133.615 171.25 131.469 171.25C129.552 171.25 127.74 170.646 126.031 169.438L126.812 168.156C128.438 169.219 130.021 169.76 131.562 169.781C132.292 169.781 132.958 169.646 133.562 169.375C134.979 168.688 135.688 167.448 135.688 165.656C135.688 164.99 135.552 164.385 135.281 163.844C134.823 162.948 133.792 162.104 132.188 161.312C130.479 160.458 129.479 159.938 129.188 159.75C127.396 158.604 126.5 157.042 126.5 155.062C126.5 153.646 126.979 152.438 127.938 151.438C129.104 150.25 130.604 149.656 132.438 149.656C132.875 149.656 133.302 149.698 133.719 149.781C135.552 150.135 136.802 151.104 137.469 152.688L136.094 153.406C136.031 153.281 135.958 153.146 135.875 153C135.062 151.75 133.875 151.125 132.312 151.125C131.583 151.125 130.896 151.292 130.25 151.625C128.896 152.333 128.219 153.469 128.219 155.031C128.219 155.615 128.333 156.146 128.562 156.625C128.979 157.479 129.979 158.292 131.562 159.062C133.333 159.958 134.365 160.5 134.656 160.688C136.51 161.875 137.438 163.51 137.438 165.594Z" fill="black"/>
<path fill-rule="evenodd" clip-rule="evenodd" d="M142.439 74.3078L142.565 43L118.821 60.5005C113.117 58.8368 106.944 57.9275 100.5 57.9275C93.1765 57.9275 86.2033 59.102 79.8705 61.2235L55.3301 43.1377L55.4711 77.8925C50.7278 84.073 48 91.3102 48 99.0464C48 121.756 71.5051 140.165 100.5 140.165C129.495 140.165 153 121.756 153 99.0464C153 89.7595 149.069 81.1916 142.439 74.3078Z" fill="black"/>
<ellipse cx="79" cy="91" rx="14" ry="10" fill="white"/>
<ellipse cx="122" cy="91" rx="14" ry="10" fill="white"/>
<ellipse cx="79" cy="91" rx="7" ry="10" fill="black"/>
<ellipse cx="79" cy="91" rx="4" ry="7" fill="white"/>
<rect x="121" y="80" width="3" height="24" fill="black"/>
<rect x="94.7951" y="107.165" width="1.9375" height="15.5" transform="rotate(-45 94.7951 107.165)" fill="white"/>
<rect x="96.1651" y="118.125" width="1.9375" height="15.5" transform="rotate(-135 96.1651 118.125)" fill="white"/>
<rect x="129.588" y="67" width="3" height="24" transform="rotate(37.4327 129.588 67)" fill="black"/>
<path d="M137.075 54.4795L140.001 64.3321L149.997 61.94L142.877 74.2722L117 59.3322L124.12 47L127.079 56.8716L137.075 54.4795Z" fill="url(#paint1_linear_10_4)"/>
<defs>
<linearGradient id="paint0_linear_10_4" x1="100" y1="0" x2="100" y2="200" gradientUnits="userSpaceOnUse">
<stop stop-color="#E498A4"/>
<stop offset="1" stop-color="#B3ACC9"/>
</linearGradient>
<linearGradient id="paint1_linear_10_4" x1="137.058" y1="54.47" x2="129.938" y2="66.8022" gradientUnits="userSpaceOnUse">
<stop stop-color="white"/>
<stop offset="0.39" stop-color="#FFFF00"/>
<stop offset="0.645" stop-color="#FAF900"/>
<stop offset="0.84" stop-color="#E2D900"/>
<stop offset="1" stop-color="#D8B500"/>
</linearGradient>
</defs>
</svg>
