<svg width="200" height="200" viewBox="0 0 200 200" fill="none" xmlns="http://www.w3.org/2000/svg">
<rect width="200" height="200" fill="url(#paint0_linear_10_4)"/>
<path d="M84.2188 163.562C84.2188 165.292 83.8958 166.771 83.25 168C82.1042 170.188 80.125 171.281 77.3125 171.281C76.7083 171.281 76.1354 171.229 75.5938 171.125C72.1979 170.438 70.5 167.792 70.5 163.188V149.906H72.1875V163.219C72.2292 167.469 73.9271 169.646 77.2812 169.75C80.7396 169.708 82.5 167.635 82.5625 163.531V149.906H84.2188V163.562ZM99.5 165.594C99.5 166.969 99.1354 168.135 98.4062 169.094C97.3021 170.531 95.6771 171.25 93.5312 171.25C91.6146 171.25 89.8021 170.646 88.0938 169.438L88.875 168.156C90.5 169.219 92.0833 169.76 93.625 169.781C94.3542 169.781 95.0208 169.646 95.625 169.375C97.0417 168.688 97.75 167.448 97.75 165.656C97.75 164.99 97.6146 164.385 97.3438 163.844C96.8854 162.948 95.8542 162.104 94.25 161.312C92.5417 160.458 91.5417 159.938 91.25 159.75C89.4583 158.604 88.5625 157.042 88.5625 155.062C88.5625 153.646 89.0417 152.438 90 151.438C91.1667 150.25 92.6667 149.656 94.5 149.656C94.9375 149.656 95.3646 149.698 95.7812 149.781C97.6146 150.135 98.8646 151.104 99.5312 152.688L98.1562 153.406C98.0938 153.281 98.0208 153.146 97.9375 153C97.125 151.75 95.9375 151.125 94.375 151.125C93.6458 151.125 92.9583 151.292 92.3125 151.625C90.9583 152.333 90.2812 153.469 90.2812 155.031C90.2812 155.615 90.3958 156.146 90.625 156.625C91.0417 157.479 92.0417 158.292 93.625 159.062C95.3958 159.958 96.4271 160.5 96.7188 160.688C98.5729 161.875 99.5 163.51 99.5 165.594ZM113.781 169.562V171H103.531V149.906H113.5V151.344H105.188V159.25H112.594V160.688H105.188V169.562H113.781ZM119.688 171H118V149.906C119.021 149.865 120.594 149.844 122.719 149.844C123.302 149.844 123.844 149.875 124.344 149.938C128.01 150.312 129.844 152.167 129.844 155.5C129.844 156.167 129.76 156.792 129.594 157.375C129.01 159.458 127.573 160.792 125.281 161.375L129.125 169.031C129.396 169.594 129.792 169.896 130.312 169.938H130.5L130.594 171.156C130.385 171.219 130.115 171.25 129.781 171.25C128.927 171.229 128.24 170.729 127.719 169.75L123.656 161.656C123.469 161.677 123.156 161.688 122.719 161.688H119.688V171ZM122.531 151.281C121.552 151.281 120.604 151.312 119.688 151.375V160.219H122.5C122.625 160.219 122.771 160.219 122.938 160.219C126.354 160.094 128.062 158.594 128.062 155.719C128.062 154.844 127.938 154.104 127.688 153.5C127.042 152.021 125.323 151.281 122.531 151.281Z" fill="black"/>
<path fill-rule="evenodd" clip-rule="evenodd" d="M142.439 74.3078L142.565 43L118.821 60.5005C113.117 58.8368 106.944 57.9275 100.5 57.9275C93.1765 57.9275 86.2033 59.102 79.8705 61.2235L55.3301 43.1377L55.4711 77.8925C50.7278 84.073 48 91.3102 48 99.0464C48 121.756 71.5051 140.165 100.5 140.165C129.495 140.165 153 121.756 153 99.0464C153 89.7595 149.069 81.1916 142.439 74.3078Z" fill="black"/>
<ellipse cx="79" cy="91" rx="14" ry="10" fill="white"/>
<ellipse cx="122" cy="91" rx="14" ry="10" fill="white"/>
<ellipse cx="79" cy="91" rx="7" ry="10" fill="black"/>
<ellipse cx="79" cy="91" rx="4" ry="7" fill="white"/>
<rect x="121" y="80" width="3" height="24" fill="black"/>
<rect x="94.7951" y="107.165" width="1.9375" height="15.5" transform="rotate(-45 94.7951 107.165)" fill="white"/>
<rect x="96.1651" y="118.125" width="1.9375" height="15.5" transform="rotate(-135 96.1651 118.125)" fill="white"/>
<rect x="129.588" y="67" width="3" height="24" transform="rotate(37.4327 129.588 67)" fill="black"/>
<path d="M137.075 54.4795L140.001 64.3321L149.997 61.94L142.877 74.2722L117 59.3322L124.12 47L127.079 56.8716L137.075 54.4795Z" fill="url(#paint1_linear_10_4)"/>
<defs>
<linearGradient id="paint0_linear_10_4" x1="100" y1="0" x2="100" y2="200" gradientUnits="userSpaceOnUse">
<stop stop-color="#E498A4"/>
<stop offset="1" stop-color="#B3ACC9"/>
</linearGradient>
<linearGradient id="paint1_linear_10_4" x1="137.058" y1="54.47" x2="129.938" y2="66.8022" gradientUnits="userSpaceOnUse">
<stop stop-color="white"/>
<stop offset="0.39" stop-color="#FFFF00"/>
<stop offset="0.645" stop-color="#FAF900"/>
<stop offset="0.84" stop-color="#E2D900"/>
<stop offset="1" stop-color="#D8B500"/>
</linearGradient>
</defs>
</svg>
